<svg xmlns="http://www.w3.org/2000/svg" width="182.891" height="31.997" viewBox="0 0 503 88">
  <defs>
    <style>
      .cls-1 {
        fill: #bababa;
        fill-rule: evenodd;
      }
    </style>
  </defs>
  <path id="gemAtro" class="cls-1" d="M14.764,10.162Q0.493,32.455.493,48.355a35.287,35.287,0,0,0,6.66,20.659,19.631,19.631,0,0,0,6.252,4.893,33.254,33.254,0,0,0,8.291,1.9H37.87a31.122,31.122,0,0,1,1.5,10.33A92.5,92.5,0,0,0,56.9,56.238H55.811a27.657,27.657,0,0,0,.544-4.01q0.134-2.106.136-4.553V45.365a5.394,5.394,0,0,0-.136-1.631L60.569,36.8H36.783l-3.942,12.64H45.618A15.615,15.615,0,0,1,46.7,55.015v1.223H27.4q-7.614-.134-10.33-13.32,0.271-3.125.544-5.5t0.544-4.01a4.37,4.37,0,0,1,4.349-3.4q1.086-.134,2.582-0.2t3.4-.068l20.8-.136,9.106-19.436H14.764ZM90.333,51.209l3.942-12.64L104.6,37.482a3.089,3.089,0,0,0,2.379-1.155,10,10,0,0,0,1.7-2.786,17.4,17.4,0,0,0,1.019-3.4,16.4,16.4,0,0,0,.34-2.99q0-2.58-2.718-4.893A78.238,78.238,0,0,0,83.4,33.4a51.914,51.914,0,0,0-1.223,9.922q-0.137,2.584-.2,5.709t-0.068,6.8h37.241l4.758,9.786a8.959,8.959,0,0,1,.747,1.291c0.136,0.319.293,0.7,0.476,1.155l3.806,7.34H75.11q-1.09-2.447-2.175-4.757a77.118,77.118,0,0,1-3.194-7.34,35.383,35.383,0,0,1-1.563-6.116q-0.816-11.143-.816-16.174a95.3,95.3,0,0,1,.476-9.786,74.711,74.711,0,0,1,1.427-8.835Q86.8,7.715,104.332,3.5a55.237,55.237,0,0,1,13.592,12.912,39.713,39.713,0,0,1,7.34,16.31,12.488,12.488,0,0,1-4.214,9.922q-1.5,1.36-3.194,2.65a33.8,33.8,0,0,1-3.873,2.514l-4.35,2.311a0.12,0.12,0,0,1-.136.136h-0.136l-6.252.951H90.333Zm58.035,27.184a7.778,7.778,0,0,1,.544-0.68l6.932-8.155q-4.76-11.959-4.757-21.883,0-1.9.068-3.33t0.2-2.514A17.376,17.376,0,0,1,160.465,33a74.427,74.427,0,0,1,7.2-2.718,66.831,66.831,0,0,1,8.155-2.039c0.543-.089,1.04-0.181,1.495-0.272a2.82,2.82,0,0,1,1.223,0,4.93,4.93,0,0,1,3.33,2.379q1.428,2.109,2.922,4.825a48.178,48.178,0,0,0-8.562,9.31,74.456,74.456,0,0,0-6.253,10.4,22.585,22.585,0,0,0-2.854,10.6,3.973,3.973,0,0,0-.136,1.359v1.767q0,6.661,3.126,18.349l14.543-16.174q-3.127-9.378-3.126-13.048a11.167,11.167,0,0,1,3.942-9.106q0.678-.541,1.291-1.019c0.408-.316.837-0.656,1.291-1.019l2.991,11.417,2.446,8.563a91.194,91.194,0,0,0,3.67,11.961q0.949,2.31,1.971,4.485a41.185,41.185,0,0,0,2.378,4.349L216.463,70.1a46.81,46.81,0,0,1-4.893-7.34,64.392,64.392,0,0,1-3.806-8.155q-1.631-3.941-3.4-8.835t-3.534-9.922l-2.855-9.242a37.893,37.893,0,0,1-2.038-6.524,21.216,21.216,0,0,0-3.126-7.611q-1.9-2.447-6.253-2.854-1.361-.134-2.446-0.2t-1.767-.068Q166.037,9.347,150,22.8,135.592,36.666,135.592,60.18a72.576,72.576,0,0,0,5.3,27.319l6.932-8.427C147.914,78.981,148.1,78.754,148.368,78.393ZM267.159,66.3l4.349,9.378H231.277q-7.885-12.774-7.884-29.358a66.306,66.306,0,0,1,6.389-28,16.793,16.793,0,0,1,2.99-4.145,26.349,26.349,0,0,1,4.621-3.738A21.951,21.951,0,0,1,248.13,7.308a27.627,27.627,0,0,1,7,.748,14.4,14.4,0,0,1,4.825,2.243,18.891,18.891,0,0,1,3.874,3.942q1.834,2.447,4.145,5.844a16.817,16.817,0,0,1,.952-4.553,17.594,17.594,0,0,1,1.9-3.466q1.223-1.765,3.058-4.213a78.835,78.835,0,0,0,4.417-6.8L294.478,22.8q-11.147,9.515-11.145,19.028a15.088,15.088,0,0,0,.408,3.4q0.27,1.5.747,3.194t1.156,3.874l7.747,24.873c0.089,0.272.225,0.769,0.408,1.5,0.089,0.361.225,0.816,0.408,1.359A68.107,68.107,0,0,1,275.994,63.17a145.581,145.581,0,0,0-5.029-15.63,128.716,128.716,0,0,0-5.709-12.64,12.5,12.5,0,0,0-4.757-5.709,13.093,13.093,0,0,0-7.068-2.039A10.846,10.846,0,0,0,245,30.957q-7.747,8.021-7.747,25.145h25.417l3.669,8.427a12.235,12.235,0,0,1,.816,1.767h0Zm63.881-6.252-0.272,19.844a46.486,46.486,0,0,0,8.359-7.611,47.708,47.708,0,0,0,6.184-9.242V29.6h9.514l7.748-19.572H345.991V0.24A63.29,63.29,0,0,0,339.807,5a59.329,59.329,0,0,0-5.1,5.029h-14a29.751,29.751,0,0,1-1.155-4.349A37.039,37.039,0,0,1,318.943.24Q305.35,15.464,301.274,29.6H331.04V60.044Zm53.143-15.9a15.926,15.926,0,0,1,3.4-10.33A11.538,11.538,0,0,1,397.1,29.6h25.144A87.345,87.345,0,0,0,404.162-.575q-0.136,2.313-.271,3.806t-0.272,2.447a13.2,13.2,0,0,1-1.5,4.213l-17.262.136a14.022,14.022,0,0,0-9.65,4.214,17.777,17.777,0,0,0-5.3,9.514q-0.273,2.583-.408,6.388t-0.135,8.835V61.539a51.339,51.339,0,0,0,14.407,18.893l0.136-16.854a14.278,14.278,0,0,0,.136-2.718Zm59.395,31.4a27.839,27.839,0,0,1-4.621-10.873q-0.544-2.988-.816-6.184t-0.272-6.728V30.142l-8.834-.544A67.312,67.312,0,0,1,447.112.1q0.541,4.759,1.631,10.058h38.329a13.533,13.533,0,0,1,8.426,2.582,12.8,12.8,0,0,1,4.622,6.932,72.3,72.3,0,0,1,2.31,18.349q0,17.807-7.068,37.377l-21.339.136H443.578Zm42.134-19.572q0.541-3.941.748-6.932t0.2-5.029q0-12.911-8.427-14.407H451.325a88.317,88.317,0,0,0,.612,10.534q0.612,5.1,1.7,10.126a5.141,5.141,0,0,0,2.174,4.078,7.035,7.035,0,0,0,4.486,1.5l7.747,0.136h17.669Z"/>
</svg>
